<?xml version="1.0" encoding="UTF-8" standalone="no"?>
<!DOCTYPE svg PUBLIC "-//W3C//DTD SVG 1.1//EN"
 "http://www.w3.org/Graphics/SVG/1.1/DTD/svg11.dtd">
<!-- Generated by graphviz version 2.43.0 (0)
 -->
<!-- Title: Architecture Pages: 1 -->
<svg width="1139pt" height="220pt"
 viewBox="0.00 0.00 1139.00 220.00" xmlns="http://www.w3.org/2000/svg" xmlns:xlink="http://www.w3.org/1999/xlink">
<g id="graph0" class="graph" transform="scale(1 1) rotate(0) translate(4 216)">
<title>Architecture</title>
<polygon fill="#1a1e25" stroke="transparent" points="-4,4 -4,-216 1135,-216 1135,4 -4,4"/>
<!-- UI -->
<g id="node1" class="node">
<title>UI</title>
<polygon fill="#2a3140" stroke="#3a4358" points="481.5,-212 360.5,-212 360.5,-176 481.5,-176 481.5,-212"/>
<text text-anchor="middle" x="421" y="-190.3" font-family="sans-serif" font-size="14.00" fill="#d6d9de">FastAPI Web UI</text>
</g>
<!-- Pipeline -->
<g id="node3" class="node">
<title>Pipeline</title>
<polygon fill="#2a3140" stroke="#3a4358" points="565,-125 395,-125 395,-89 565,-89 565,-125"/>
<text text-anchor="middle" x="480" y="-103.3" font-family="sans-serif" font-size="14.00" fill="#d6d9de">Orchestration Pipeline</text>
</g>
<!-- UI&#45;&gt;Pipeline -->
<g id="edge1" class="edge">
<title>UI&#45;&gt;Pipeline</title>
<path fill="none" stroke="#7fb2d9" d="M432.94,-175.8C441.34,-163.7 452.72,-147.3 462.18,-133.67"/>
<polygon fill="#7fb2d9" stroke="#7fb2d9" points="465.25,-135.39 468.08,-125.18 459.5,-131.39 465.25,-135.39"/>
<text text-anchor="middle" x="485.5" y="-146.8" font-family="sans-serif" font-size="14.00" fill="#d6d9de">API Calls</text>
</g>
<!-- CLI -->
<g id="node2" class="node">
<title>CLI</title>
<polygon fill="#2a3140" stroke="#3a4358" points="580,-212 500,-212 500,-176 580,-176 580,-212"/>
<text text-anchor="middle" x="540" y="-190.3" font-family="sans-serif" font-size="14.00" fill="#d6d9de">Typer CLI</text>
</g>
<!-- CLI&#45;&gt;Pipeline -->
<g id="edge2" class="edge">
<title>CLI&#45;&gt;Pipeline</title>
<path fill="none" stroke="#7fb2d9" d="M534.47,-175.88C530.73,-165.77 525.17,-153.03 518,-143 515.35,-139.29 512.25,-135.67 508.98,-132.25"/>
<polygon fill="#7fb2d9" stroke="#7fb2d9" points="511.29,-129.61 501.69,-125.14 506.41,-134.63 511.29,-129.61"/>
<text text-anchor="middle" x="565.5" y="-146.8" font-family="sans-serif" font-size="14.00" fill="#d6d9de">Commands</text>
</g>
<!-- SQLite -->
<g id="node4" class="node">
<title>SQLite</title>
<path fill="#336655" stroke="#3a4358" d="M86,-33.73C86,-35.53 66.73,-37 43,-37 19.27,-37 0,-35.53 0,-33.73 0,-33.73 0,-4.27 0,-4.27 0,-2.47 19.27,-1 43,-1 66.73,-1 86,-2.47 86,-4.27 86,-4.27 86,-33.73 86,-33.73"/>
<path fill="none" stroke="#3a4358" d="M86,-33.73C86,-31.92 66.73,-30.45 43,-30.45 19.27,-30.45 0,-31.92 0,-33.73"/>
<text text-anchor="middle" x="43" y="-15.3" font-family="sans-serif" font-size="14.00" fill="#d6d9de">SQLite DB</text>
</g>
<!-- Pipeline&#45;&gt;SQLite -->
<g id="edge9" class="edge">
<title>Pipeline&#45;&gt;SQLite</title>
<path fill="none" stroke="#7fb2d9" d="M394.79,-101.59C307.59,-96.34 178.37,-86.31 131,-71 111.15,-64.59 90.88,-53.23 74.81,-42.86"/>
<polygon fill="#7fb2d9" stroke="#7fb2d9" points="76.61,-39.86 66.34,-37.24 72.74,-45.69 76.61,-39.86"/>
<text text-anchor="middle" x="149.5" y="-59.8" font-family="sans-serif" font-size="14.00" fill="#d6d9de">State</text>
</g>
<!-- JSONL -->
<g id="node5" class="node">
<title>JSONL</title>
<polygon fill="#2a3140" stroke="#3a4358" points="221.5,-37 104.5,-37 104.5,-1 227.5,-1 227.5,-31 221.5,-37"/>
<polyline fill="none" stroke="#3a4358" points="221.5,-37 221.5,-31 "/>
<polyline fill="none" stroke="#3a4358" points="227.5,-31 221.5,-31 "/>
<text text-anchor="middle" x="166" y="-15.3" font-family="sans-serif" font-size="14.00" fill="#d6d9de">JSONL Manifest</text>
</g>
<!-- Pipeline&#45;&gt;JSONL -->
<g id="edge10" class="edge">
<title>Pipeline&#45;&gt;JSONL</title>
<path fill="none" stroke="#7fb2d9" d="M394.87,-106.22C318.05,-104.64 212.41,-97.49 181,-71 174,-65.1 170.18,-56.11 168.11,-47.32"/>
<polygon fill="#7fb2d9" stroke="#7fb2d9" points="171.53,-46.56 166.42,-37.28 164.63,-47.73 171.53,-46.56"/>
<text text-anchor="middle" x="221.5" y="-59.8" font-family="sans-serif" font-size="14.00" fill="#d6d9de">Provenance</text>
</g>
<!-- Providers -->
<g id="node6" class="node">
<title>Providers</title>
<polygon fill="#2a3140" stroke="#3a4358" points="500,-38 264,-38 264,0 500,0 500,-38"/>
<text text-anchor="middle" x="382" y="-22.8" font-family="sans-serif" font-size="14.00" fill="#d6d9de">API Providers</text>
<text text-anchor="middle" x="382" y="-7.8" font-family="sans-serif" font-size="14.00" fill="#d6d9de">(Openverse, Google CSE, Local)</text>
</g>
<!-- Pipeline&#45;&gt;Providers -->
<g id="edge3" class="edge">
<title>Pipeline&#45;&gt;Providers</title>
<path fill="none" stroke="#7fb2d9" d="M394.82,-102.64C344.29,-98.65 287.04,-89.95 271,-71 260.83,-58.98 265.89,-49.65 278.21,-42.45"/>
<polygon fill="#7fb2d9" stroke="#7fb2d9" points="279.82,-45.56 287.26,-38.02 276.74,-39.27 279.82,-45.56"/>
<text text-anchor="middle" x="324" y="-59.8" font-family="sans-serif" font-size="14.00" fill="#d6d9de">Search Queries</text>
</g>
<!-- Gate -->
<g id="node7" class="node">
<title>Gate</title>
<polygon fill="#2a3140" stroke="#3a4358" points="789.5,-38 548.5,-38 548.5,0 789.5,0 789.5,-38"/>
<text text-anchor="middle" x="669" y="-22.8" font-family="sans-serif" font-size="14.00" fill="#d6d9de">PolicyGate</text>
<text text-anchor="middle" x="669" y="-7.8" font-family="sans-serif" font-size="14.00" fill="#d6d9de">(Rate limits, licenses, robots.txt)</text>
</g>
<!-- Pipeline&#45;&gt;Gate -->
<g id="edge5" class="edge">
<title>Pipeline&#45;&gt;Gate</title>
<path fill="none" stroke="#7fb2d9" d="M510.08,-88.84C519.7,-83.25 530.35,-76.95 540,-71 550.39,-64.59 552.03,-61.34 563,-56 574.03,-50.63 586.07,-45.73 597.94,-41.38"/>
<polygon fill="#7fb2d9" stroke="#7fb2d9" points="599.16,-44.66 607.41,-38.01 596.82,-38.06 599.16,-44.66"/>
<text text-anchor="middle" x="628.5" y="-59.8" font-family="sans-serif" font-size="14.00" fill="#d6d9de">Check Image URLs</text>
</g>
<!-- Embed -->
<g id="node8" class="node">
<title>Embed</title>
<polygon fill="#2a3140" stroke="#3a4358" points="1026.5,-38 859.5,-38 859.5,0 1026.5,0 1026.5,-38"/>
<text text-anchor="middle" x="943" y="-22.8" font-family="sans-serif" font-size="14.00" fill="#d6d9de">Embedding Engine</text>
<text text-anchor="middle" x="943" y="-7.8" font-family="sans-serif" font-size="14.00" fill="#d6d9de">(OpenCLIP, HNSWLib)</text>
</g>
<!-- Pipeline&#45;&gt;Embed -->
<g id="edge7" class="edge">
<title>Pipeline&#45;&gt;Embed</title>
<path fill="none" stroke="#7fb2d9" d="M565.21,-105.97C638.51,-103.98 746.45,-96.36 837,-71 849.63,-67.46 876.27,-54.64 899.69,-42.73"/>
<polygon fill="#7fb2d9" stroke="#7fb2d9" points="901.49,-45.74 908.8,-38.06 898.3,-39.51 901.49,-45.74"/>
<text text-anchor="middle" x="927" y="-59.8" font-family="sans-serif" font-size="14.00" fill="#d6d9de">Extract Features</text>
</g>
<!-- Providers&#45;&gt;Pipeline -->
<g id="edge4" class="edge">
<title>Providers&#45;&gt;Pipeline</title>
<path fill="none" stroke="#7fb2d9" d="M384.75,-38.4C387.18,-49.05 391.69,-62.06 400,-71 404.58,-75.92 409.97,-80.19 415.75,-83.88"/>
<polygon fill="#7fb2d9" stroke="#7fb2d9" points="414.05,-86.94 424.47,-88.89 417.54,-80.87 414.05,-86.94"/>
<text text-anchor="middle" x="470" y="-59.8" font-family="sans-serif" font-size="14.00" fill="#d6d9de">Candidate Metadata</text>
</g>
<!-- Gate&#45;&gt;Pipeline -->
<g id="edge6" class="edge">
<title>Gate&#45;&gt;Pipeline</title>
<path fill="none" stroke="#7fb2d9" d="M687.63,-38.29C695.92,-48.63 702.17,-61.38 694,-71 678.41,-89.35 624.95,-98.1 575.37,-102.26"/>
<polygon fill="#7fb2d9" stroke="#7fb2d9" points="574.89,-98.79 565.2,-103.06 575.44,-105.77 574.89,-98.79"/>
<text text-anchor="middle" x="765" y="-59.8" font-family="sans-serif" font-size="14.00" fill="#d6d9de">Download Originals</text>
</g>
<!-- Embed&#45;&gt;Pipeline -->
<g id="edge8" class="edge">
<title>Embed&#45;&gt;Pipeline</title>
<path fill="none" stroke="#7fb2d9" d="M974.52,-38.16C987.75,-48 997.99,-60.3 988,-71 960.52,-100.43 714.86,-105.7 575.48,-106.29"/>
<polygon fill="#7fb2d9" stroke="#7fb2d9" points="575.21,-102.79 565.22,-106.33 575.24,-109.79 575.21,-102.79"/>
<text text-anchor="middle" x="1061.5" y="-59.8" font-family="sans-serif" font-size="14.00" fill="#d6d9de">Ranked &amp; Clustered</text>
</g>
</g>
</svg>
