<?xml version="1.0" encoding="UTF-8" standalone="no"?>
<!DOCTYPE svg PUBLIC "-//W3C//DTD SVG 1.1//EN"
 "http://www.w3.org/Graphics/SVG/1.1/DTD/svg11.dtd">
<!-- Generated by graphviz version 2.43.0 (0)
 -->
<!-- Title: DataModel Pages: 1 -->
<svg width="822pt" height="196pt"
 viewBox="0.00 0.00 822.00 195.50" xmlns="http://www.w3.org/2000/svg" xmlns:xlink="http://www.w3.org/1999/xlink">
<g id="graph0" class="graph" transform="scale(1 1) rotate(0) translate(4 191.5)">
<title>DataModel</title>
<polygon fill="#1a1e25" stroke="transparent" points="-4,4 -4,-191.5 818,-191.5 818,4 -4,4"/>
<!-- Sessions -->
<g id="node1" class="node">
<title>Sessions</title>
<polygon fill="#2a3140" stroke="transparent" points="8,-46 8,-130 166,-130 166,-46 8,-46"/>
<polygon fill="#336655" stroke="transparent" points="8,-109 8,-130 166,-130 166,-109 8,-109"/>
<polygon fill="none" stroke="black" points="8,-109 8,-130 166,-130 166,-109 8,-109"/>
<text text-anchor="start" x="53.5" y="-116.8" font-family="sans-serif" font-weight="bold" font-size="14.00" fill="#d6d9de">sessions</text>
<polygon fill="none" stroke="black" points="8,-88 8,-109 93,-109 93,-88 8,-88"/>
<text text-anchor="start" x="11" y="-94.8" font-family="sans-serif" font-size="14.00" fill="#d6d9de">id</text>
<polygon fill="none" stroke="black" points="93,-88 93,-109 166,-109 166,-88 93,-88"/>
<text text-anchor="start" x="96" y="-94.8" font-family="sans-serif" font-size="14.00" fill="#d6d9de">TEXT (PK)</text>
<polygon fill="none" stroke="black" points="8,-67 8,-88 93,-88 93,-67 8,-67"/>
<text text-anchor="start" x="11" y="-73.8" font-family="sans-serif" font-size="14.00" fill="#d6d9de">intent</text>
<polygon fill="none" stroke="black" points="93,-67 93,-88 166,-88 166,-67 93,-67"/>
<text text-anchor="start" x="96" y="-73.8" font-family="sans-serif" font-size="14.00" fill="#d6d9de">TEXT</text>
<polygon fill="none" stroke="black" points="8,-46 8,-67 93,-67 93,-46 8,-46"/>
<text text-anchor="start" x="11" y="-52.8" font-family="sans-serif" font-size="14.00" fill="#d6d9de">config_json</text>
<polygon fill="none" stroke="black" points="93,-46 93,-67 166,-67 166,-46 93,-46"/>
<text text-anchor="start" x="96" y="-52.8" font-family="sans-serif" font-size="14.00" fill="#d6d9de">TEXT</text>
</g>
<!-- Searches -->
<g id="node2" class="node">
<title>Searches</title>
<polygon fill="#2a3140" stroke="transparent" points="218,-78.5 218,-183.5 369,-183.5 369,-78.5 218,-78.5"/>
<polygon fill="#336655" stroke="transparent" points="218.5,-162 218.5,-183 369.5,-183 369.5,-162 218.5,-162"/>
<polygon fill="none" stroke="black" points="218.5,-162 218.5,-183 369.5,-183 369.5,-162 218.5,-162"/>
<text text-anchor="start" x="258.5" y="-169.8" font-family="sans-serif" font-weight="bold" font-size="14.00" fill="#d6d9de">searches</text>
<polygon fill="none" stroke="black" points="218.5,-141 218.5,-162 296.5,-162 296.5,-141 218.5,-141"/>
<text text-anchor="start" x="221.5" y="-147.8" font-family="sans-serif" font-size="14.00" fill="#d6d9de">id</text>
<polygon fill="none" stroke="black" points="296.5,-141 296.5,-162 369.5,-162 369.5,-141 296.5,-141"/>
<text text-anchor="start" x="299.5" y="-147.8" font-family="sans-serif" font-size="14.00" fill="#d6d9de">TEXT (PK)</text>
<polygon fill="none" stroke="black" points="218.5,-120 218.5,-141 296.5,-141 296.5,-120 218.5,-120"/>
<text text-anchor="start" x="221.5" y="-126.8" font-family="sans-serif" font-size="14.00" fill="#d6d9de">session_id</text>
<polygon fill="none" stroke="black" points="296.5,-120 296.5,-141 369.5,-141 369.5,-120 296.5,-120"/>
<text text-anchor="start" x="299.5" y="-126.8" font-family="sans-serif" font-size="14.00" fill="#d6d9de">TEXT (FK)</text>
<polygon fill="none" stroke="black" points="218.5,-99 218.5,-120 296.5,-120 296.5,-99 218.5,-99"/>
<text text-anchor="start" x="221.5" y="-105.8" font-family="sans-serif" font-size="14.00" fill="#d6d9de">provider</text>
<polygon fill="none" stroke="black" points="296.5,-99 296.5,-120 369.5,-120 369.5,-99 296.5,-99"/>
<text text-anchor="start" x="299.5" y="-105.8" font-family="sans-serif" font-size="14.00" fill="#d6d9de">TEXT</text>
<polygon fill="none" stroke="black" points="218.5,-78 218.5,-99 296.5,-99 296.5,-78 218.5,-78"/>
<text text-anchor="start" x="221.5" y="-84.8" font-family="sans-serif" font-size="14.00" fill="#d6d9de">query</text>
<polygon fill="none" stroke="black" points="296.5,-78 296.5,-99 369.5,-99 369.5,-78 296.5,-78"/>
<text text-anchor="start" x="299.5" y="-84.8" font-family="sans-serif" font-size="14.00" fill="#d6d9de">TEXT</text>
</g>
<!-- Sessions&#45;&gt;Searches -->
<g id="edge1" class="edge">
<title>Sessions&#45;&gt;Searches</title>
<path fill="none" stroke="#7fb2d9" d="M174.13,-106.11C182.61,-107.89 191.23,-109.71 199.77,-111.5"/>
<polygon fill="#7fb2d9" stroke="#7fb2d9" points="199.23,-114.96 209.73,-113.6 200.67,-108.11 199.23,-114.96"/>
</g>
<!-- Images -->
<g id="node3" class="node">
<title>Images</title>
<polygon fill="#2a3140" stroke="transparent" points="421,-4 421,-172 576,-172 576,-4 421,-4"/>
<polygon fill="#336655" stroke="transparent" points="421.5,-151 421.5,-172 576.5,-172 576.5,-151 421.5,-151"/>
<polygon fill="none" stroke="black" points="421.5,-151 421.5,-172 576.5,-172 576.5,-151 421.5,-151"/>
<text text-anchor="start" x="470.5" y="-158.8" font-family="sans-serif" font-weight="bold" font-size="14.00" fill="#d6d9de">images</text>
<polygon fill="none" stroke="black" points="421.5,-130 421.5,-151 503.5,-151 503.5,-130 421.5,-130"/>
<text text-anchor="start" x="424.5" y="-136.8" font-family="sans-serif" font-size="14.00" fill="#d6d9de">id</text>
<polygon fill="none" stroke="black" points="503.5,-130 503.5,-151 576.5,-151 576.5,-130 503.5,-130"/>
<text text-anchor="start" x="506.5" y="-136.8" font-family="sans-serif" font-size="14.00" fill="#d6d9de">TEXT (PK)</text>
<polygon fill="none" stroke="black" points="421.5,-109 421.5,-130 503.5,-130 503.5,-109 421.5,-109"/>
<text text-anchor="start" x="424.5" y="-115.8" font-family="sans-serif" font-size="14.00" fill="#d6d9de">session_id</text>
<polygon fill="none" stroke="black" points="503.5,-109 503.5,-130 576.5,-130 576.5,-109 503.5,-109"/>
<text text-anchor="start" x="506.5" y="-115.8" font-family="sans-serif" font-size="14.00" fill="#d6d9de">TEXT (FK)</text>
<polygon fill="none" stroke="black" points="421.5,-88 421.5,-109 503.5,-109 503.5,-88 421.5,-88"/>
<text text-anchor="start" x="424.5" y="-94.8" font-family="sans-serif" font-size="14.00" fill="#d6d9de">search_id</text>
<polygon fill="none" stroke="black" points="503.5,-88 503.5,-109 576.5,-109 576.5,-88 503.5,-88"/>
<text text-anchor="start" x="506.5" y="-94.8" font-family="sans-serif" font-size="14.00" fill="#d6d9de">TEXT (FK)</text>
<polygon fill="none" stroke="black" points="421.5,-67 421.5,-88 503.5,-88 503.5,-67 421.5,-67"/>
<text text-anchor="start" x="424.5" y="-73.8" font-family="sans-serif" font-size="14.00" fill="#d6d9de">role</text>
<polygon fill="none" stroke="black" points="503.5,-67 503.5,-88 576.5,-88 576.5,-67 503.5,-67"/>
<text text-anchor="start" x="506.5" y="-73.8" font-family="sans-serif" font-size="14.00" fill="#d6d9de">TEXT</text>
<polygon fill="none" stroke="black" points="421.5,-46 421.5,-67 503.5,-67 503.5,-46 421.5,-46"/>
<text text-anchor="start" x="424.5" y="-52.8" font-family="sans-serif" font-size="14.00" fill="#d6d9de">status</text>
<polygon fill="none" stroke="black" points="503.5,-46 503.5,-67 576.5,-67 576.5,-46 503.5,-46"/>
<text text-anchor="start" x="506.5" y="-52.8" font-family="sans-serif" font-size="14.00" fill="#d6d9de">TEXT</text>
<polygon fill="none" stroke="black" points="421.5,-25 421.5,-46 503.5,-46 503.5,-25 421.5,-25"/>
<text text-anchor="start" x="424.5" y="-31.8" font-family="sans-serif" font-size="14.00" fill="#d6d9de">phash</text>
<polygon fill="none" stroke="black" points="503.5,-25 503.5,-46 576.5,-46 576.5,-25 503.5,-25"/>
<text text-anchor="start" x="506.5" y="-31.8" font-family="sans-serif" font-size="14.00" fill="#d6d9de">TEXT</text>
<polygon fill="none" stroke="black" points="421.5,-4 421.5,-25 503.5,-25 503.5,-4 421.5,-4"/>
<text text-anchor="start" x="424.5" y="-10.8" font-family="sans-serif" font-size="14.00" fill="#d6d9de">rank_score</text>
<polygon fill="none" stroke="black" points="503.5,-4 503.5,-25 576.5,-25 576.5,-4 503.5,-4"/>
<text text-anchor="start" x="506.5" y="-10.8" font-family="sans-serif" font-size="14.00" fill="#d6d9de">REAL</text>
</g>
<!-- Sessions&#45;&gt;Images -->
<g id="edge2" class="edge">
<title>Sessions&#45;&gt;Images</title>
<path fill="none" stroke="#7fb2d9" d="M174.05,-70.51C186.08,-68.64 198.32,-67.04 210,-66 283.93,-59.39 303.08,-59.31 377,-66 385.37,-66.76 394.03,-67.81 402.69,-69.04"/>
<polygon fill="#7fb2d9" stroke="#7fb2d9" points="402.43,-72.54 412.84,-70.56 403.47,-65.62 402.43,-72.54"/>
</g>
<!-- Searches&#45;&gt;Images -->
<g id="edge3" class="edge">
<title>Searches&#45;&gt;Images</title>
<path fill="none" stroke="#7fb2d9" d="M377.07,-113.51C385.51,-111.72 394.13,-109.9 402.69,-108.08"/>
<polygon fill="#7fb2d9" stroke="#7fb2d9" points="403.64,-111.46 412.7,-105.96 402.19,-104.61 403.64,-111.46"/>
</g>
<!-- Feedback -->
<g id="node4" class="node">
<title>Feedback</title>
<polygon fill="#2a3140" stroke="transparent" points="628,-35.5 628,-140.5 806,-140.5 806,-35.5 628,-35.5"/>
<polygon fill="#336655" stroke="transparent" points="628,-119 628,-140 806,-140 806,-119 628,-119"/>
<polygon fill="none" stroke="black" points="628,-119 628,-140 806,-140 806,-119 628,-119"/>
<text text-anchor="start" x="680.5" y="-126.8" font-family="sans-serif" font-weight="bold" font-size="14.00" fill="#d6d9de">feedback</text>
<polygon fill="none" stroke="black" points="628,-98 628,-119 706,-119 706,-98 628,-98"/>
<text text-anchor="start" x="631" y="-104.8" font-family="sans-serif" font-size="14.00" fill="#d6d9de">id</text>
<polygon fill="none" stroke="black" points="706,-98 706,-119 806,-119 806,-98 706,-98"/>
<text text-anchor="start" x="709" y="-104.8" font-family="sans-serif" font-size="14.00" fill="#d6d9de">INTEGER (PK)</text>
<polygon fill="none" stroke="black" points="628,-77 628,-98 706,-98 706,-77 628,-77"/>
<text text-anchor="start" x="631" y="-83.8" font-family="sans-serif" font-size="14.00" fill="#d6d9de">session_id</text>
<polygon fill="none" stroke="black" points="706,-77 706,-98 806,-98 806,-77 706,-77"/>
<text text-anchor="start" x="709" y="-83.8" font-family="sans-serif" font-size="14.00" fill="#d6d9de">TEXT (FK)</text>
<polygon fill="none" stroke="black" points="628,-56 628,-77 706,-77 706,-56 628,-56"/>
<text text-anchor="start" x="631" y="-62.8" font-family="sans-serif" font-size="14.00" fill="#d6d9de">image_id</text>
<polygon fill="none" stroke="black" points="706,-56 706,-77 806,-77 806,-56 706,-56"/>
<text text-anchor="start" x="709" y="-62.8" font-family="sans-serif" font-size="14.00" fill="#d6d9de">TEXT (FK)</text>
<polygon fill="none" stroke="black" points="628,-35 628,-56 706,-56 706,-35 628,-35"/>
<text text-anchor="start" x="631" y="-41.8" font-family="sans-serif" font-size="14.00" fill="#d6d9de">signal</text>
<polygon fill="none" stroke="black" points="706,-35 706,-56 806,-56 806,-35 706,-35"/>
<text text-anchor="start" x="709" y="-41.8" font-family="sans-serif" font-size="14.00" fill="#d6d9de">TEXT</text>
</g>
<!-- Images&#45;&gt;Feedback -->
<g id="edge4" class="edge">
<title>Images&#45;&gt;Feedback</title>
<path fill="none" stroke="#7fb2d9" d="M584.13,-88C592.57,-88 601.21,-88 609.84,-88"/>
<polygon fill="#7fb2d9" stroke="#7fb2d9" points="609.94,-91.5 619.94,-88 609.94,-84.5 609.94,-91.5"/>
</g>
</g>
</svg>
