<?xml version="1.0" encoding="UTF-8" standalone="no"?>
<!DOCTYPE svg PUBLIC "-//W3C//DTD SVG 1.1//EN"
 "http://www.w3.org/Graphics/SVG/1.1/DTD/svg11.dtd">
<!-- Generated by graphviz version 2.43.0 (0)
 -->
<!-- Title: PipelineFlow Pages: 1 -->
<svg width="243pt" height="835pt"
 viewBox="0.00 0.00 243.00 835.00" xmlns="http://www.w3.org/2000/svg" xmlns:xlink="http://www.w3.org/1999/xlink">
<g id="graph0" class="graph" transform="scale(1 1) rotate(0) translate(4 831)">
<title>PipelineFlow</title>
<polygon fill="#1a1e25" stroke="transparent" points="-4,4 -4,-831 239,-831 239,4 -4,4"/>
<!-- Start -->
<g id="node1" class="node">
<title>Start</title>
<ellipse fill="#336655" stroke="#3a4358" cx="117.5" cy="-809" rx="67.69" ry="18"/>
<text text-anchor="middle" x="117.5" y="-805.3" font-family="sans-serif" font-size="14.00" fill="#d6d9de">New Session</text>
</g>
<!-- Search -->
<g id="node2" class="node">
<title>Search</title>
<path fill="#2a3140" stroke="#3a4358" d="M55,-678.5C55,-678.5 180,-678.5 180,-678.5 186,-678.5 192,-684.5 192,-690.5 192,-690.5 192,-742.5 192,-742.5 192,-748.5 186,-754.5 180,-754.5 180,-754.5 55,-754.5 55,-754.5 49,-754.5 43,-748.5 43,-742.5 43,-742.5 43,-690.5 43,-690.5 43,-684.5 49,-678.5 55,-678.5"/>
<text text-anchor="middle" x="117.5" y="-739.3" font-family="sans-serif" font-size="14.00" fill="#d6d9de">1. Search</text>
<polyline fill="none" stroke="#3a4358" points="43,-731.5 192,-731.5 "/>
<text text-anchor="start" x="51" y="-716.3" font-family="sans-serif" font-size="14.00" fill="#d6d9de">Query API provider</text>
<text text-anchor="start" x="51" y="-701.3" font-family="sans-serif" font-size="14.00" fill="#d6d9de">Record metadata</text>
<text text-anchor="middle" x="117.5" y="-686.3" font-family="sans-serif" font-size="14.00" fill="#d6d9de">No downloads yet</text>
</g>
<!-- Start&#45;&gt;Search -->
<g id="edge1" class="edge">
<title>Start&#45;&gt;Search</title>
<path fill="none" stroke="#7fb2d9" d="M117.5,-790.98C117.5,-783.46 117.5,-774.2 117.5,-764.83"/>
<polygon fill="#7fb2d9" stroke="#7fb2d9" points="121,-764.69 117.5,-754.69 114,-764.69 121,-764.69"/>
</g>
<!-- Acquire -->
<g id="node3" class="node">
<title>Acquire</title>
<path fill="#2a3140" stroke="#3a4358" d="M55,-565.5C55,-565.5 180,-565.5 180,-565.5 186,-565.5 192,-571.5 192,-577.5 192,-577.5 192,-629.5 192,-629.5 192,-635.5 186,-641.5 180,-641.5 180,-641.5 55,-641.5 55,-641.5 49,-641.5 43,-635.5 43,-629.5 43,-629.5 43,-577.5 43,-577.5 43,-571.5 49,-565.5 55,-565.5"/>
<text text-anchor="middle" x="117.5" y="-626.3" font-family="sans-serif" font-size="14.00" fill="#d6d9de">2. Acquire</text>
<polyline fill="none" stroke="#3a4358" points="43,-618.5 192,-618.5 "/>
<text text-anchor="start" x="51" y="-603.3" font-family="sans-serif" font-size="14.00" fill="#d6d9de">PolicyGate checks</text>
<text text-anchor="start" x="51" y="-588.3" font-family="sans-serif" font-size="14.00" fill="#d6d9de">Respect robots.txt</text>
<text text-anchor="middle" x="117.5" y="-573.3" font-family="sans-serif" font-size="14.00" fill="#d6d9de">Download originals</text>
</g>
<!-- Search&#45;&gt;Acquire -->
<g id="edge2" class="edge">
<title>Search&#45;&gt;Acquire</title>
<path fill="none" stroke="#7fb2d9" d="M117.5,-678.23C117.5,-669.81 117.5,-660.76 117.5,-651.98"/>
<polygon fill="#7fb2d9" stroke="#7fb2d9" points="121,-651.86 117.5,-641.86 114,-651.86 121,-651.86"/>
</g>
<!-- Normalize -->
<g id="node4" class="node">
<title>Normalize</title>
<path fill="#2a3140" stroke="#3a4358" d="M65.5,-437.5C65.5,-437.5 169.5,-437.5 169.5,-437.5 175.5,-437.5 181.5,-443.5 181.5,-449.5 181.5,-449.5 181.5,-516.5 181.5,-516.5 181.5,-522.5 175.5,-528.5 169.5,-528.5 169.5,-528.5 65.5,-528.5 65.5,-528.5 59.5,-528.5 53.5,-522.5 53.5,-516.5 53.5,-516.5 53.5,-449.5 53.5,-449.5 53.5,-443.5 59.5,-437.5 65.5,-437.5"/>
<text text-anchor="middle" x="117.5" y="-513.3" font-family="sans-serif" font-size="14.00" fill="#d6d9de">3. Normalize</text>
<polyline fill="none" stroke="#3a4358" points="53.5,-505.5 181.5,-505.5 "/>
<text text-anchor="start" x="61.5" y="-490.3" font-family="sans-serif" font-size="14.00" fill="#d6d9de">Sniff signatures</text>
<text text-anchor="start" x="61.5" y="-475.3" font-family="sans-serif" font-size="14.00" fill="#d6d9de">Extract EXIF</text>
<text text-anchor="start" x="61.5" y="-460.3" font-family="sans-serif" font-size="14.00" fill="#d6d9de">Generate phash</text>
<text text-anchor="middle" x="117.5" y="-445.3" font-family="sans-serif" font-size="14.00" fill="#d6d9de">Create previews</text>
</g>
<!-- Acquire&#45;&gt;Normalize -->
<g id="edge3" class="edge">
<title>Acquire&#45;&gt;Normalize</title>
<path fill="none" stroke="#7fb2d9" d="M117.5,-565.33C117.5,-556.85 117.5,-547.66 117.5,-538.62"/>
<polygon fill="#7fb2d9" stroke="#7fb2d9" points="121,-538.52 117.5,-528.52 114,-538.52 121,-538.52"/>
</g>
<!-- Embed -->
<g id="node5" class="node">
<title>Embed</title>
<path fill="#2a3140" stroke="#3a4358" d="M20.5,-339.5C20.5,-339.5 214.5,-339.5 214.5,-339.5 220.5,-339.5 226.5,-345.5 226.5,-351.5 226.5,-351.5 226.5,-388.5 226.5,-388.5 226.5,-394.5 220.5,-400.5 214.5,-400.5 214.5,-400.5 20.5,-400.5 20.5,-400.5 14.5,-400.5 8.5,-394.5 8.5,-388.5 8.5,-388.5 8.5,-351.5 8.5,-351.5 8.5,-345.5 14.5,-339.5 20.5,-339.5"/>
<text text-anchor="middle" x="117.5" y="-385.3" font-family="sans-serif" font-size="14.00" fill="#d6d9de">4. Embed</text>
<polyline fill="none" stroke="#3a4358" points="8.5,-377.5 226.5,-377.5 "/>
<text text-anchor="start" x="16.5" y="-362.3" font-family="sans-serif" font-size="14.00" fill="#d6d9de">Compute vector embeddings</text>
<text text-anchor="middle" x="117.5" y="-347.3" font-family="sans-serif" font-size="14.00" fill="#d6d9de">(OpenCLIP fallback to color)</text>
</g>
<!-- Normalize&#45;&gt;Embed -->
<g id="edge4" class="edge">
<title>Normalize&#45;&gt;Embed</title>
<path fill="none" stroke="#7fb2d9" d="M117.5,-437.49C117.5,-428.66 117.5,-419.44 117.5,-410.78"/>
<polygon fill="#7fb2d9" stroke="#7fb2d9" points="121,-410.55 117.5,-400.55 114,-410.55 121,-410.55"/>
</g>
<!-- Rank -->
<g id="node6" class="node">
<title>Rank</title>
<path fill="#2a3140" stroke="#3a4358" d="M12,-226.5C12,-226.5 223,-226.5 223,-226.5 229,-226.5 235,-232.5 235,-238.5 235,-238.5 235,-290.5 235,-290.5 235,-296.5 229,-302.5 223,-302.5 223,-302.5 12,-302.5 12,-302.5 6,-302.5 0,-296.5 0,-290.5 0,-290.5 0,-238.5 0,-238.5 0,-232.5 6,-226.5 12,-226.5"/>
<text text-anchor="middle" x="117.5" y="-287.3" font-family="sans-serif" font-size="14.00" fill="#d6d9de">5. Rank &amp; Dedup</text>
<polyline fill="none" stroke="#3a4358" points="0,-279.5 235,-279.5 "/>
<text text-anchor="start" x="8" y="-264.3" font-family="sans-serif" font-size="14.00" fill="#d6d9de">Hybrid scoring (text, img, qual)</text>
<text text-anchor="start" x="8" y="-249.3" font-family="sans-serif" font-size="14.00" fill="#d6d9de">Identify exact &amp; near&#45;dups</text>
<text text-anchor="middle" x="117.5" y="-234.3" font-family="sans-serif" font-size="14.00" fill="#d6d9de">Group into clusters</text>
</g>
<!-- Embed&#45;&gt;Rank -->
<g id="edge5" class="edge">
<title>Embed&#45;&gt;Rank</title>
<path fill="none" stroke="#7fb2d9" d="M117.5,-339.34C117.5,-331.01 117.5,-321.73 117.5,-312.65"/>
<polygon fill="#7fb2d9" stroke="#7fb2d9" points="121,-312.54 117.5,-302.54 114,-312.54 121,-312.54"/>
</g>
<!-- Review -->
<g id="node7" class="node">
<title>Review</title>
<path fill="#2a3140" stroke="#3a4358" d="M31,-113.5C31,-113.5 204,-113.5 204,-113.5 210,-113.5 216,-119.5 216,-125.5 216,-125.5 216,-177.5 216,-177.5 216,-183.5 210,-189.5 204,-189.5 204,-189.5 31,-189.5 31,-189.5 25,-189.5 19,-183.5 19,-177.5 19,-177.5 19,-125.5 19,-125.5 19,-119.5 25,-113.5 31,-113.5"/>
<text text-anchor="middle" x="117.5" y="-174.3" font-family="sans-serif" font-size="14.00" fill="#d6d9de">6. Review (Web UI)</text>
<polyline fill="none" stroke="#3a4358" points="19,-166.5 216,-166.5 "/>
<text text-anchor="start" x="27" y="-151.3" font-family="sans-serif" font-size="14.00" fill="#d6d9de">Human&#45;in&#45;the&#45;loop review</text>
<text text-anchor="start" x="27" y="-136.3" font-family="sans-serif" font-size="14.00" fill="#d6d9de">Keep, Reject, Star</text>
<text text-anchor="middle" x="117.5" y="-121.3" font-family="sans-serif" font-size="14.00" fill="#d6d9de">Live Rocchio re&#45;ranking</text>
</g>
<!-- Rank&#45;&gt;Review -->
<g id="edge6" class="edge">
<title>Rank&#45;&gt;Review</title>
<path fill="none" stroke="#7fb2d9" d="M117.5,-226.23C117.5,-217.81 117.5,-208.76 117.5,-199.98"/>
<polygon fill="#7fb2d9" stroke="#7fb2d9" points="121,-199.86 117.5,-189.86 114,-199.86 121,-199.86"/>
</g>
<!-- Export -->
<g id="node8" class="node">
<title>Export</title>
<path fill="#2a3140" stroke="#3a4358" d="M31.5,-0.5C31.5,-0.5 203.5,-0.5 203.5,-0.5 209.5,-0.5 215.5,-6.5 215.5,-12.5 215.5,-12.5 215.5,-64.5 215.5,-64.5 215.5,-70.5 209.5,-76.5 203.5,-76.5 203.5,-76.5 31.5,-76.5 31.5,-76.5 25.5,-76.5 19.5,-70.5 19.5,-64.5 19.5,-64.5 19.5,-12.5 19.5,-12.5 19.5,-6.5 25.5,-0.5 31.5,-0.5"/>
<text text-anchor="middle" x="117.5" y="-61.3" font-family="sans-serif" font-size="14.00" fill="#d6d9de">7. Export</text>
<polyline fill="none" stroke="#3a4358" points="19.5,-53.5 215.5,-53.5 "/>
<text text-anchor="start" x="27.5" y="-38.3" font-family="sans-serif" font-size="14.00" fill="#d6d9de">Generate folders by score</text>
<text text-anchor="start" x="27.5" y="-23.3" font-family="sans-serif" font-size="14.00" fill="#d6d9de">Create CSV manifest</text>
<text text-anchor="middle" x="117.5" y="-8.3" font-family="sans-serif" font-size="14.00" fill="#d6d9de">Output contact sheet</text>
</g>
<!-- Review&#45;&gt;Export -->
<g id="edge7" class="edge">
<title>Review&#45;&gt;Export</title>
<path fill="none" stroke="#7fb2d9" d="M117.5,-113.23C117.5,-104.81 117.5,-95.76 117.5,-86.98"/>
<polygon fill="#7fb2d9" stroke="#7fb2d9" points="121,-86.86 117.5,-76.86 114,-86.86 121,-86.86"/>
</g>
</g>
</svg>
