<?xml version="1.0" encoding="UTF-8" standalone="no"?>
<!DOCTYPE svg PUBLIC "-//W3C//DTD SVG 1.1//EN"
 "http://www.w3.org/Graphics/SVG/1.1/DTD/svg11.dtd">
<!-- Generated by graphviz version 2.43.0 (0)
 -->
<!-- Title: Lessons Pages: 1 -->
<svg width="824pt" height="274pt"
 viewBox="0.00 0.00 823.68 274.00" xmlns="http://www.w3.org/2000/svg" xmlns:xlink="http://www.w3.org/1999/xlink">
<g id="graph0" class="graph" transform="scale(1 1) rotate(0) translate(4 270)">
<title>Lessons</title>
<polygon fill="#1a1e25" stroke="transparent" points="-4,4 -4,-270 819.68,-270 819.68,4 -4,4"/>
<!-- Core -->
<g id="node1" class="node">
<title>Core</title>
<ellipse fill="#336655" stroke="#3a4358" cx="93.34" cy="-132.5" rx="93.18" ry="26.74"/>
<text text-anchor="middle" x="93.34" y="-136.3" font-family="sans-serif" font-size="14.00" fill="#d6d9de">ImagePipe</text>
<text text-anchor="middle" x="93.34" y="-121.3" font-family="sans-serif" font-size="14.00" fill="#d6d9de">Lessons Learned</text>
</g>
<!-- Threads -->
<g id="node2" class="node">
<title>Threads</title>
<path fill="#2a3140" stroke="#3a4358" d="M382.18,-246.5C382.18,-246.5 243.18,-246.5 243.18,-246.5 237.18,-246.5 231.18,-240.5 231.18,-234.5 231.18,-234.5 231.18,-222.5 231.18,-222.5 231.18,-216.5 237.18,-210.5 243.18,-210.5 243.18,-210.5 382.18,-210.5 382.18,-210.5 388.18,-210.5 394.18,-216.5 394.18,-222.5 394.18,-222.5 394.18,-234.5 394.18,-234.5 394.18,-240.5 388.18,-246.5 382.18,-246.5"/>
<text text-anchor="middle" x="312.68" y="-224.8" font-family="sans-serif" font-size="14.00" fill="#d6d9de">SQLite Thread Safety</text>
</g>
<!-- Core&#45;&gt;Threads -->
<g id="edge1" class="edge">
<title>Core&#45;&gt;Threads</title>
<path fill="none" stroke="#7fb2d9" d="M143.9,-155.19C167.68,-166 196.6,-179.04 222.68,-190.5 234.45,-195.67 247.14,-201.15 259.14,-206.29"/>
<polygon fill="#7fb2d9" stroke="#7fb2d9" points="258.02,-209.61 268.59,-210.32 260.77,-203.17 258.02,-209.61"/>
</g>
<!-- Telemetry -->
<g id="node4" class="node">
<title>Telemetry</title>
<path fill="#2a3140" stroke="#3a4358" d="M372.68,-181.5C372.68,-181.5 252.68,-181.5 252.68,-181.5 246.68,-181.5 240.68,-175.5 240.68,-169.5 240.68,-169.5 240.68,-157.5 240.68,-157.5 240.68,-151.5 246.68,-145.5 252.68,-145.5 252.68,-145.5 372.68,-145.5 372.68,-145.5 378.68,-145.5 384.68,-151.5 384.68,-157.5 384.68,-157.5 384.68,-169.5 384.68,-169.5 384.68,-175.5 378.68,-181.5 372.68,-181.5"/>
<text text-anchor="middle" x="312.68" y="-159.8" font-family="sans-serif" font-size="14.00" fill="#d6d9de">UI Telemetry &amp; UX</text>
</g>
<!-- Core&#45;&gt;Telemetry -->
<g id="edge3" class="edge">
<title>Core&#45;&gt;Telemetry</title>
<path fill="none" stroke="#7fb2d9" d="M177.43,-144.35C194.86,-146.84 213.23,-149.46 230.58,-151.93"/>
<polygon fill="#7fb2d9" stroke="#7fb2d9" points="230.28,-155.42 240.67,-153.37 231.26,-148.49 230.28,-155.42"/>
</g>
<!-- Errors -->
<g id="node6" class="node">
<title>Errors</title>
<path fill="#2a3140" stroke="#3a4358" d="M390.68,-123.5C390.68,-123.5 234.68,-123.5 234.68,-123.5 228.68,-123.5 222.68,-117.5 222.68,-111.5 222.68,-111.5 222.68,-99.5 222.68,-99.5 222.68,-93.5 228.68,-87.5 234.68,-87.5 234.68,-87.5 390.68,-87.5 390.68,-87.5 396.68,-87.5 402.68,-93.5 402.68,-99.5 402.68,-99.5 402.68,-111.5 402.68,-111.5 402.68,-117.5 396.68,-123.5 390.68,-123.5"/>
<text text-anchor="middle" x="312.68" y="-101.8" font-family="sans-serif" font-size="14.00" fill="#d6d9de">Graceful Error Handling</text>
</g>
<!-- Core&#45;&gt;Errors -->
<g id="edge5" class="edge">
<title>Core&#45;&gt;Errors</title>
<path fill="none" stroke="#7fb2d9" d="M179.3,-121.95C190.15,-120.6 201.33,-119.21 212.37,-117.84"/>
<polygon fill="#7fb2d9" stroke="#7fb2d9" points="212.98,-121.29 222.47,-116.58 212.12,-114.34 212.98,-121.29"/>
</g>
<!-- Compliance -->
<g id="node8" class="node">
<title>Compliance</title>
<path fill="#2a3140" stroke="#3a4358" d="M385.18,-61.5C385.18,-61.5 240.18,-61.5 240.18,-61.5 234.18,-61.5 228.18,-55.5 228.18,-49.5 228.18,-49.5 228.18,-37.5 228.18,-37.5 228.18,-31.5 234.18,-25.5 240.18,-25.5 240.18,-25.5 385.18,-25.5 385.18,-25.5 391.18,-25.5 397.18,-31.5 397.18,-37.5 397.18,-37.5 397.18,-49.5 397.18,-49.5 397.18,-55.5 391.18,-61.5 385.18,-61.5"/>
<text text-anchor="middle" x="312.68" y="-39.8" font-family="sans-serif" font-size="14.00" fill="#d6d9de">Compliance &amp; Policies</text>
</g>
<!-- Core&#45;&gt;Compliance -->
<g id="edge7" class="edge">
<title>Core&#45;&gt;Compliance</title>
<path fill="none" stroke="#7fb2d9" d="M146.36,-110.28C169.65,-100.42 197.49,-88.75 222.68,-78.5 233.26,-74.19 244.59,-69.67 255.5,-65.36"/>
<polygon fill="#7fb2d9" stroke="#7fb2d9" points="256.92,-68.56 264.94,-61.64 254.35,-62.05 256.92,-68.56"/>
</g>
<!-- Threads_Desc -->
<g id="node3" class="node">
<title>Threads_Desc</title>
<polygon fill="#2a3140" stroke="#3a4358" points="809.68,-266 438.68,-266 438.68,-213 815.68,-213 815.68,-260 809.68,-266"/>
<polyline fill="none" stroke="#3a4358" points="809.68,-266 809.68,-260 "/>
<polyline fill="none" stroke="#3a4358" points="815.68,-260 809.68,-260 "/>
<text text-anchor="middle" x="627.18" y="-250.8" font-family="sans-serif" font-size="14.00" fill="#d6d9de">FastAPI runs endpoints in worker threads.</text>
<text text-anchor="middle" x="627.18" y="-235.8" font-family="sans-serif" font-size="14.00" fill="#d6d9de">SQLite connections must be created with</text>
<text text-anchor="middle" x="627.18" y="-220.8" font-family="sans-serif" font-size="14.00" fill="#d6d9de">check_same_thread=False or managed per&#45;request.</text>
</g>
<!-- Threads&#45;&gt;Threads_Desc -->
<g id="edge2" class="edge">
<title>Threads&#45;&gt;Threads_Desc</title>
<path fill="none" stroke="#7fb2d9" d="M394.56,-231.35C405.26,-231.72 416.58,-232.12 428.23,-232.53"/>
<polygon fill="#7fb2d9" stroke="#7fb2d9" points="428.44,-236.04 438.55,-232.9 428.68,-229.05 428.44,-236.04"/>
</g>
<!-- Telemetry_Desc -->
<g id="node5" class="node">
<title>Telemetry_Desc</title>
<polygon fill="#2a3140" stroke="#3a4358" points="778.18,-195 470.18,-195 470.18,-142 784.18,-142 784.18,-189 778.18,-195"/>
<polyline fill="none" stroke="#3a4358" points="778.18,-195 778.18,-189 "/>
<polyline fill="none" stroke="#3a4358" points="784.18,-189 778.18,-189 "/>
<text text-anchor="middle" x="627.18" y="-179.8" font-family="sans-serif" font-size="14.00" fill="#d6d9de">Long&#45;running synchronous backend tasks</text>
<text text-anchor="middle" x="627.18" y="-164.8" font-family="sans-serif" font-size="14.00" fill="#d6d9de">require granular endpoints so the frontend</text>
<text text-anchor="middle" x="627.18" y="-149.8" font-family="sans-serif" font-size="14.00" fill="#d6d9de">can show step&#45;by&#45;step progress/timers.</text>
</g>
<!-- Telemetry&#45;&gt;Telemetry_Desc -->
<g id="edge4" class="edge">
<title>Telemetry&#45;&gt;Telemetry_Desc</title>
<path fill="none" stroke="#7fb2d9" d="M384.98,-164.64C407.58,-165 433.59,-165.42 459.98,-165.84"/>
<polygon fill="#7fb2d9" stroke="#7fb2d9" points="460.05,-169.34 470.11,-166 460.16,-162.34 460.05,-169.34"/>
</g>
<!-- Errors_Desc -->
<g id="node7" class="node">
<title>Errors_Desc</title>
<polygon fill="#2a3140" stroke="#3a4358" points="806.18,-124 442.18,-124 442.18,-71 812.18,-71 812.18,-118 806.18,-124"/>
<polyline fill="none" stroke="#3a4358" points="806.18,-124 806.18,-118 "/>
<polyline fill="none" stroke="#3a4358" points="812.18,-118 806.18,-118 "/>
<text text-anchor="middle" x="627.18" y="-108.8" font-family="sans-serif" font-size="14.00" fill="#d6d9de">Providers (like Google CSE) might return 0 results</text>
<text text-anchor="middle" x="627.18" y="-93.8" font-family="sans-serif" font-size="14.00" fill="#d6d9de">or throw auth errors. The UI must catch HTTP 500s</text>
<text text-anchor="middle" x="627.18" y="-78.8" font-family="sans-serif" font-size="14.00" fill="#d6d9de">and empty result sets to alert the user.</text>
</g>
<!-- Errors&#45;&gt;Errors_Desc -->
<g id="edge6" class="edge">
<title>Errors&#45;&gt;Errors_Desc</title>
<path fill="none" stroke="#7fb2d9" d="M402.81,-103.22C412.21,-102.98 422.02,-102.73 432.04,-102.47"/>
<polygon fill="#7fb2d9" stroke="#7fb2d9" points="432.23,-105.97 442.13,-102.21 432.05,-98.97 432.23,-105.97"/>
</g>
<!-- Compliance_Desc -->
<g id="node9" class="node">
<title>Compliance_Desc</title>
<polygon fill="#2a3140" stroke="#3a4358" points="799.68,-53 448.68,-53 448.68,0 805.68,0 805.68,-47 799.68,-53"/>
<polyline fill="none" stroke="#3a4358" points="799.68,-53 799.68,-47 "/>
<polyline fill="none" stroke="#3a4358" points="805.68,-47 799.68,-47 "/>
<text text-anchor="middle" x="627.18" y="-37.8" font-family="sans-serif" font-size="14.00" fill="#d6d9de">PolicyGate is critical. It prevents hotlinking</text>
<text text-anchor="middle" x="627.18" y="-22.8" font-family="sans-serif" font-size="14.00" fill="#d6d9de">thumbnails from gstatic, enforces robots.txt, and</text>
<text text-anchor="middle" x="627.18" y="-7.8" font-family="sans-serif" font-size="14.00" fill="#d6d9de">validates mime types before ingestion.</text>
</g>
<!-- Compliance&#45;&gt;Compliance_Desc -->
<g id="edge8" class="edge">
<title>Compliance&#45;&gt;Compliance_Desc</title>
<path fill="none" stroke="#7fb2d9" d="M397.42,-38.94C410.3,-38.24 424.01,-37.5 438.09,-36.73"/>
<polygon fill="#7fb2d9" stroke="#7fb2d9" points="438.61,-40.21 448.4,-36.17 438.23,-33.22 438.61,-40.21"/>
</g>
</g>
</svg>
